/* XPM */
static char * rr2_xpm[] = {
"64 64 89 1",
" 	c None",
".	c #141214",
"+	c #071A0F",
"@	c #042A11",
"#	c #044311",
"$	c #040204",
"%	c #053213",
"&	c #245A34",
"*	c #2C6943",
"=	c #046824",
"-	c #04872C",
";	c #0B0A0B",
">	c #048210",
",	c #047729",
"'	c #045A1C",
")	c #049C34",
"!	c #061206",
"~	c #04FE04",
"{	c #243527",
"]	c #395244",
"^	c #444244",
"/	c #4C4A4C",
"(	c #074A1F",
"_	c #05521D",
":	c #043A14",
"<	c #244A2C",
"[	c #242204",
"}	c #04220B",
"|	c #284230",
"1	c #555253",
"2	c #1C1A1B",
"3	c #272527",
"4	c #344A44",
"5	c #FCFEFC",
"6	c #FFFFFF",
"7	c #919191",
"8	c #AAAAAA",
"9	c #000000",
"0	c #555555",
"a	c #C7C7C7",
"b	c #FF8F8F",
"c	c #FF3C3C",
"d	c #FF2323",
"e	c #FF0B0B",
"f	c #FF0000",
"g	c #2E2E2E",
"h	c #404040",
"i	c #A8A8A8",
"j	c #E00000",
"k	c #868686",
"l	c #242424",
"m	c #E3E3E3",
"n	c #363636",
"o	c #292929",
"p	c #D70000",
"q	c #8E8E8E",
"r	c #727272",
"s	c #BC0000",
"t	c #E30909",
"u	c #FF2B2B",
"v	c #DCDCDC",
"w	c #474747",
"x	c #A3A3A3",
"y	c #4E4E4E",
"z	c #777777",
"A	c #9B9B9B",
"B	c #373737",
"C	c #686868",
"D	c #262626",
"E	c #1D1D1D",
"F	c #1C1C1C",
"G	c #191919",
"H	c #747474",
"I	c #B3B3B3",
"J	c #1A1A1A",
"K	c #858585",
"L	c #626262",
"M	c #0C0C0C",
"N	c #5B5B5B",
"O	c #171717",
"P	c #0A0A0A",
"Q	c #393939",
"R	c #0F0F0F",
"S	c #DFDFDF",
"T	c #E87A7A",
"U	c #691010",
"V	c #EA0000",
"W	c #FE0000",
"X	c #F10000",
"                                                                ",
"                                                                ",
"                                                                ",
"               .+.+.+...+               @#$$$$$$$$              ",
"              $$$$$$$$##%&*&**=*&*****=&--#;$$$$$$$             ",
"              $$$$$$$;==>,>-,-,>-,>,>,'-)))%;$$$$$;             ",
"              $$$$$$$$==)))'======,=='-)))>,@$$$$$$             ",
"              !;$;$$;!==))>,)~~==~~>)=>)),=>'%{]^^/             ",
"              ^^^^^^^^==))-,-~))))~')=,--=)))=''(!!             ",
"              $$$$$$$$==)>,,=)))))),>=>'-')==-)))=+             ",
"              $$$$$$$;==>=,=,))))))-==-_'#=>)))))-:             ",
"              $$$$$$$$==-,-'>)))))))==)'=)))))))))_             ",
"              $$$$!%!;==->-=,)))))))==-=))))))))))<             ",
"              /<(=-)<^==>,-=,))))))-==)=))))))))-'[             ",
"              !,))))'$_'=,->=)))))),-=)=)))))))=%;;             ",
"              ;=)))),}=)-,-,-=-)))>,)=-=))))-=};$$$             ",
"              $%==-))'))>,-,)-=,===))=)=))>=@;$$$$;             ",
"              !=-)='#-))-,>_='''_'='=_-=,'};$$$$$$$             ",
"              <,))=|,)))>,-$$$$$$$$$$#)'=|^/^/^/^/1             ",
"              ;=))>'-)))-,)=#(:#:#%:%-)',+$$$$$$$$$             ",
"              $:-),>)))),@:%:%#%:%#%:%@%,+$$$$$$$$;             ",
"              $+--,)))))>$$$$$$$$$$$$$$@,+$$$$$$$$$             ",
"              $$==)))))),!$$$$$$$$$$$$$',+$$$$$$$$;             ",
"              2{(=))))))=------>----->->,|^/^/^/^//             ",
"              33%,)))))'================,+$$$$$$$$;             ",
"              $$$=))))>,-))-)-))-))-))-))+$$$$$$$$$             ",
"              $$$}=)->=)))))))))))))))))-+$$$$$$$$;             ",
"              $$$$!@%}=))))))))))))))))))+$$$$$$$$$             ",
"              ;;$;$$;$=)))))))))))))))))){^^^^^^^^^             ",
"              ^^^^^^^4=))))))))))))))))))!;$;$$;$$!             ",
"              $$$$$$$$=)-)-)--)-)-)-)-)->+$$$$$$$$;             ",
"              $$$$$$$$}}@5             5@!$$$$$$$$$             ",
"              $$$$$$$$$$$               $$$$$$$$$$;             ",
"               $$$$$$$$$$               +!2!.+..2!              ",
"                                 6                              ",
"               666666            6                              ",
"               78  666          98                              ",
"              990999a6    66    98  6      666                  ",
"              996 990   666666  9866666   66bcdefff             ",
"              996 69g   ah9  6  98i9 66  609jffffffffff         ",
"              9966k9   l9l999m6 90l99n6  9o9pffffffffffffffff   ",
"              99899q   90   986 9r  99m 996  stuffffffffffffffff",
"              99099v6  986  90  98   98 9w6  996  ffffffffffffff",
"              996 9n66 9x6  9y  986 z9A 9B6  B9   fff   ffffffff",
"              996 99C6a9D66a9n  98 6r9  99666EF  ffff   ffff    ",
"              99   99  99  99   99  99  99  99   ffff   ffff    ",
"              99   99   9999    9 999    9999   ffff   ffff     ",
"                               66  66           ffff   ffff     ",
"              666666           66  66           ffff  ffff      ",
"              78  666         906 996          ffff   ffff      ",
"             990999a6    66   906 996  6       ffff   fff       ",
"             996 990   66666  906 996  6    6  ffff  ffff       ",
"             996 69g   n9966  906 996 G66  HI  fff   ffff       ",
"             9966k9   9GB9J6  906 996 9K6  9  ffff  ffff        ",
"             99899q    66h96  906 996 996 Gw  ffff  ffff        ",
"             99099v6  aLM996  906 996 99a69N ffff  fffffff      ",
"             996 9n66 OJgP96  906 996  9HaQ  ffff fffffffff     ",
"             996 99C69RS6w966 906 996  999k  ffffffffffffff     ",
"             99   99 99  99   99  99   999Tfffffffffffffff      ",
"             99   99  999 99  99  99    9Uffffffffff            ",
"                                        VWfffff                 ",
"                                       Xffffff                  ",
"                                       fffff                    ",
"                                        ff                      "};
